<?xml version="1.0" encoding="utf-8"?>
<!-- Generator: Adobe Illustrator 21.0.2, SVG Export Plug-In . SVG Version: 6.00 Build 0)  -->
<svg version="1.1" id="Layer_1" xmlns="http://www.w3.org/2000/svg" xmlns:xlink="http://www.w3.org/1999/xlink" x="0px" y="0px"
	 viewBox="0 0 184 65" style="enable-background:new 0 0 184 65;" xml:space="preserve">
<style type="text/css">
	.st0{fill:#FFFFFF;}
	.st1{fill:#F38B00;}
	.st2{font-family:'CenturyGothic';}
	.st3{font-size:7.2657px;}
	.st4{letter-spacing:0.8;}
</style>
<title>Asset 7</title>
<g id="Layer_2">
	<g id="Layer_1-2">
		<path class="st0" d="M63.2,34h3.5v9.6c-0.1,1.6,0.1,3.2,0.5,4.9c0.5,1.2,1.4,2.4,2.8,3.1c1.5,0.8,3.3,1.1,5,1.1s3.4-0.4,4.8-1.1
			c1.3-0.7,2.3-1.7,2.8-2.9c0.5-1.6,0.6-3.3,0.5-5.1V34h3.5v10.1c0.2,2.2-0.2,4.4-1.2,6.5c-0.8,1.4-2.2,2.7-3.8,3.4
			c-2,0.9-4.3,1.3-6.5,1.2c-2.2,0.1-4.5-0.4-6.5-1.2c-1.7-0.8-3.1-2-4-3.4c-1-2.1-1.4-4.4-1.3-6.7C63.2,43.9,63.2,34,63.2,34z"/>
		<path class="st0" d="M116.8,47.8l2.9,1.1c-0.8,1.3-2,2.5-3.3,3.5c-1.3,0.9-2.7,1.5-4.2,2c-1.6,0.5-3.5,0.7-5.2,0.7
			c-4.3,0-7.8-1.1-10.3-3.3c-2.3-2-3.7-4.8-3.7-7.5c0.1-6.1,6.1-11,13.5-10.9h0.1c4.2-0.1,8.3,1.3,11,4c2,2,3,4.5,2.9,7.1h-24
			c0,2.2,1,4.4,3,5.9c1.9,1.5,4.4,2.4,7.1,2.3c1.4,0,2.7-0.2,4-0.6c1.2-0.3,2.3-0.8,3.3-1.4C115,49.8,115.9,48.8,116.8,47.8z
			 M116.8,42.2c-0.3-1.2-1-2.4-2-3.4c-0.9-1-2.1-1.6-3.5-2.1c-1.4-0.5-3-0.8-4.5-0.8c-2.4,0-4.9,0.7-6.8,2c-1.5,1.1-2.7,2.7-3.1,4.3
			H116.8z"/>
		<path class="st0" d="M125.7,34h3.5V37c0.9-1,2.1-2,3.4-2.7c1-0.6,2.3-0.9,3.6-0.9c1,0,2.1,0.3,3,0.7l-1.7,2.3
			c-0.6-0.2-1.2-0.4-1.9-0.4c-1.3,0-2.4,0.4-3.4,1c-1.2,1-2.1,2.1-2.4,3.4c-0.6,2.4-0.8,4.8-0.7,7.2v7h-3.5L125.7,34z"/>
		<path class="st1" d="M143.3,25.4c0.7,0,1.4,0.3,2,0.7c0.5,0.4,0.8,1,0.8,1.5s-0.3,1.1-0.8,1.5c-0.6,0.4-1.3,0.7-2,0.7
			s-1.4-0.3-2-0.7c-0.5-0.4-0.8-1-0.8-1.5s0.3-1.1,0.8-1.5C141.9,25.7,142.6,25.4,143.3,25.4z"/>
		<path class="st1" d="M181.2,50.9c0.7,0,1.4,0.3,2,0.7c0.5,0.4,0.8,1,0.8,1.5c0,0.6-0.3,1.1-0.8,1.5c-1.2,0.9-2.8,0.9-4,0
			c-0.5-0.4-0.8-1-0.8-1.5c0-0.6,0.3-1.1,0.8-1.5C179.8,51.2,180.5,50.9,181.2,50.9z"/>
		<rect x="141.6" y="34" class="st0" width="3.5" height="20.7"/>
		<path class="st0" d="M152.2,34h3.5v3.7c1.3-1.3,2.8-2.4,4.5-3.1c1.7-0.7,3.6-1,5.5-1c1.9,0,3.7,0.4,5.4,1.1
			c1.5,0.8,2.7,1.8,3.4,3.1c0.8,2,1.2,4.1,1,6.2v10.7H172v-9.9c0.1-1.6,0-3.1-0.3-4.8c-0.3-1.2-1.2-2.3-2.3-3.1
			c-1.3-0.8-2.8-1.1-4.4-1c-2,0-4,0.6-5.6,1.6c-1.6,1-2.8,2.4-3.3,4c-0.3,1.8-0.6,3.7-0.5,5.6v7.6h-3.5L152.2,34z"/>
		<path class="st0" d="M0,28.7V0h3.5v11.5c1.3-1.2,2.9-2.3,4.8-3.1c1.9-0.7,3.8-1,5.8-1c3.6-0.1,7.1,1,9.7,3.1
			c2.7,2,4.1,4.8,4.1,7.7c0,2.9-1.4,5.7-4.1,7.6c-2.6,2.1-6.2,3.2-9.8,3.1c-2,0.1-4-0.3-5.8-1c-1.9-0.8-3.4-1.9-4.7-3.2v3.8H0z
			 M13.8,26.7c1.9,0,3.7-0.4,5.4-1.1c1.6-0.7,2.9-1.8,3.8-3.1c0.9-1.2,1.4-2.8,1.4-4.2c0-1.4-0.5-3-1.4-4.2
			c-0.9-1.3-2.2-2.4-3.8-3.1c-1.6-0.8-3.4-1.1-5.2-1.1s-3.7,0.4-5.4,1.1c-1.6,0.7-3,1.7-4,3c-0.9,1.3-1.4,2.8-1.4,4.3
			c-0.1,2.3,1,4.5,3,6C8.2,25.9,11,26.8,13.8,26.7z"/>
		<path class="st0" d="M36.2,11.1c0.9-1,2.1-2,3.4-2.7c1-0.6,2.3-0.9,3.6-0.9c1,0,2.1,0.3,3,0.7l-1.7,2.3c-0.6-0.2-1.2-0.4-1.9-0.4
			c-1.3,0-2.4,0.4-3.4,1c-1.2,1-2.1,2.1-2.4,3.4c-0.6,2.4-0.7,4.8-0.6,7.2V11.1z"/>
		<path class="st0" d="M76,8v20.7h-3.4v-3.5c-1.4,1.3-3,2.3-4.9,3.1c-1.9,0.7-3.8,1-5.9,1c-3.6,0.1-7.1-1-9.7-3.1
			c-2.7-2-4.1-4.8-4.1-7.7c0-2.9,1.4-5.7,4.1-7.6c2.6-2.1,6.2-3.2,9.8-3.1c2.1-0.1,4.2,0.3,6.1,1c1.9,0.8,3.4,1.9,4.7,3.2V8H76z
			 M62.2,10c-1.9,0-3.7,0.3-5.4,1c-1.6,0.7-2.9,1.8-3.8,3.1c-2,2.6-2,5.8,0,8.4c0.9,1.3,2.2,2.4,3.8,3.1c1.6,0.8,3.4,1.1,5.2,1.1
			c1.9,0,3.8-0.4,5.5-1.1c1.6-0.7,2.9-1.7,3.8-3c0.9-1.2,1.4-2.8,1.4-4.2c0.1-2.3-1-4.5-3-6C67.8,10.9,65,10,62.2,10z"/>
		<path class="st0" d="M83.3,8h3.5v9.6c-0.1,1.6,0.1,3.2,0.5,4.9c0.5,1.2,1.4,2.4,2.8,3.1c1.5,0.8,3.3,1.1,5,1.1
			c1.7,0.1,3.4-0.3,4.9-1c1.3-0.7,2.3-1.7,2.8-2.9c0.5-1.6,0.6-3.3,0.5-5.1V8h3.5v10.1c0.1,2.2-0.2,4.4-1.3,6.5
			c-0.8,1.4-2.2,2.7-3.8,3.4c-2,0.9-4.3,1.3-6.5,1.2c-2.2,0.1-4.5-0.4-6.5-1.2c-1.7-0.8-3.1-2-4-3.4c-0.9-2.1-1.4-4.3-1.3-6.6
			C83.3,18,83.3,8,83.3,8z"/>
		<path class="st0" d="M114.4,8h3.5v3.7c1.3-1.3,2.8-2.4,4.5-3.1c1.7-0.7,3.6-1,5.5-1c1.9,0,3.7,0.4,5.4,1.1
			c1.5,0.8,2.7,1.8,3.4,3.1c0.8,2,1.2,4.1,1,6.2v10.7h-3.5v-9.9c0.1-1.6,0-3.1-0.3-4.8c-0.3-1.2-1.2-2.3-2.3-3.1
			c-1.3-0.8-2.8-1.1-4.4-1c-2,0-4,0.6-5.6,1.6s-2.8,2.4-3.3,4c-0.3,1.8-0.6,3.7-0.5,5.6v7.6h-3.5L114.4,8z"/>
		<text transform="matrix(1.2948 0 0 1 32.2778 62.7723)" class="st1 st2 st3 st4">CONTADORES PÚBLICOS</text>
		<path class="st0" d="M55.1,37.8c-0.7-1.3-1.9-2.4-3.4-3.1c-1.6-0.9-3.5-1.2-5.4-1.2c-1.9,0-3.7,0.4-5.5,1
			c-1.7,0.8-3.3,1.8-4.5,3.1V26.5h-3.5v28.1h3.5V47c-0.1-1.9,0.1-3.8,0.5-5.6c0.5-1.6,1.6-3,3.3-4c1.6-1,3.6-1.6,5.6-1.6
			c1.6,0,3.1,0.4,4.4,1.1c1.2,0.8,2,1.8,2.3,3.1c0.3,1.6,0.5,3.1,0.3,4.8v9.9h3.5V44C56.4,41.9,56.1,39.8,55.1,37.8z"/>
		<rect x="32.9" y="7.9" class="st0" width="3.5" height="17.6"/>
	</g>
</g>
</svg>
